<?xml version="1.0" encoding="UTF-8" standalone="no"?>
<!DOCTYPE svg PUBLIC "-//W3C//DTD SVG 1.1//EN" "http://www.w3.org/Graphics/SVG/1.1/DTD/svg11.dtd">
<svg width="100%" height="100%" viewBox="0 0 128 128" version="1.1" xmlns="http://www.w3.org/2000/svg" xmlns:xlink="http://www.w3.org/1999/xlink" xml:space="preserve" xmlns:serif="http://www.serif.com/" style="fill-rule:evenodd;clip-rule:evenodd;stroke-linejoin:round;stroke-miterlimit:2;">
    <g transform="matrix(1,0,0,1,-4,-1)">
        <g transform="matrix(0.990985,0,0,0.990985,2.21008,10.9744)">
            <path d="M120.887,15.829C120.887,6.692 113.469,-0.726 104.332,-0.726L27.498,-0.726C18.361,-0.726 10.943,6.692 10.943,15.829L10.943,92.663C10.943,101.8 18.361,109.219 27.498,109.219L104.332,109.219C113.469,109.219 120.887,101.8 120.887,92.663L120.887,15.829Z"/>
        </g>
        <g transform="matrix(0.629792,0,0,0.629792,25.0504,30.4288)">
            <path d="M82.387,27.877L35.637,27.877C27.574,27.877 23.543,32.189 23.543,40.002L23.543,71.783C23.543,79.596 27.574,83.908 35.637,83.908L40.512,83.908C42.418,83.908 43.137,84.627 43.137,86.533L43.137,98.283L56.262,85.627C57.668,84.221 58.699,83.908 60.668,83.908L88.356,83.908C96.356,83.908 100.481,79.596 100.481,71.783L100.481,40.002C100.481,39.206 100.438,38.447 100.341,37.735L105.017,33.059C105.68,35.093 106.012,37.408 106.012,39.971L106.012,71.846C106.012,82.971 99.731,89.439 88.387,89.439L60.762,89.439L46.668,101.846C44.637,103.658 43.449,104.564 41.731,104.564C39.356,104.564 37.949,102.846 37.949,100.189L37.949,89.439L35.606,89.439C24.293,89.439 17.981,83.033 17.981,71.846L17.981,39.971C17.981,28.783 24.293,22.346 35.606,22.346L87.918,22.346L82.387,27.877Z" style="fill:rgb(0,122,255);fill-rule:nonzero;"/>
        </g>
        <g transform="matrix(0.782066,0,0,0.782066,10.7524,25.814)">
            <path d="M68.262,56.908L76.137,53.221L111.168,18.252L105.949,13.064L70.949,48.033L67.106,55.689C66.793,56.377 67.543,57.221 68.262,56.908ZM114.012,15.377L116.918,12.439C118.356,11.002 118.387,9.189 117.012,7.814L116.199,7.033C114.981,5.783 113.074,5.908 111.762,7.252L108.824,10.127L114.012,15.377Z" style="fill:rgb(0,122,255);fill-rule:nonzero;"/>
        </g>
    </g>
</svg>
